<svg id="_010-breakfast" data-name="010-breakfast" xmlns="http://www.w3.org/2000/svg" xmlns:xlink="http://www.w3.org/1999/xlink" width="52.548" height="38.254" viewBox="0 0 52.548 38.254">
  <defs>
    <linearGradient id="linear-gradient" x1="0.504" y1="0.342" x2="0.512" y2="0.972" gradientUnits="objectBoundingBox">
      <stop offset="0" stop-color="#f8f6fb"/>
      <stop offset="1" stop-color="#efdcfb"/>
    </linearGradient>
    <linearGradient id="linear-gradient-2" x1="0.461" y1="0.079" x2="0.552" y2="1.066" xlink:href="#linear-gradient"/>
    <linearGradient id="linear-gradient-3" x1="0.532" y1="1.379" x2="0.477" y2="-0.143" xlink:href="#linear-gradient"/>
    <linearGradient id="linear-gradient-4" x1="0.608" y1="0.965" x2="0.326" y2="-0.379" gradientUnits="objectBoundingBox">
      <stop offset="0" stop-color="#efdcfb" stop-opacity="0"/>
      <stop offset="0.029" stop-color="#e9d6f7" stop-opacity="0.027"/>
      <stop offset="0.22" stop-color="#c5b5de" stop-opacity="0.22"/>
      <stop offset="0.414" stop-color="#aa9bcb" stop-opacity="0.416"/>
      <stop offset="0.608" stop-color="#9688bd" stop-opacity="0.608"/>
      <stop offset="0.803" stop-color="#8a7db5" stop-opacity="0.804"/>
      <stop offset="1" stop-color="#8679b2"/>
    </linearGradient>
    <radialGradient id="radial-gradient" cx="0.4" cy="0.002" r="1.023" gradientUnits="objectBoundingBox">
      <stop offset="0" stop-color="#f8f6fb"/>
      <stop offset="0.505" stop-color="#f7f4fb"/>
      <stop offset="0.766" stop-color="#f5ecfb"/>
      <stop offset="0.97" stop-color="#f0dffb"/>
      <stop offset="1" stop-color="#efdcfb"/>
    </radialGradient>
    <linearGradient id="linear-gradient-5" x1="0.563" y1="0.787" x2="0.354" y2="-0.368" xlink:href="#linear-gradient-4"/>
    <linearGradient id="linear-gradient-6" x1="0.422" y1="0.164" x2="0.554" y2="1.032" gradientUnits="objectBoundingBox">
      <stop offset="0" stop-color="#ffd945"/>
      <stop offset="0.304" stop-color="#ffcd3e"/>
      <stop offset="0.856" stop-color="#ffad2b"/>
      <stop offset="1" stop-color="#ffa325"/>
    </linearGradient>
    <linearGradient id="linear-gradient-7" x1="0.182" y1="0.432" x2="1.621" y2="0.759" gradientUnits="objectBoundingBox">
      <stop offset="0" stop-color="#e87264" stop-opacity="0"/>
      <stop offset="1" stop-color="#f8dfbe"/>
    </linearGradient>
    <linearGradient id="linear-gradient-8" x1="0.125" y1="0.453" x2="1.091" y2="0.555" gradientUnits="objectBoundingBox">
      <stop offset="0" stop-color="#e87264" stop-opacity="0"/>
      <stop offset="0.157" stop-color="#e97869" stop-opacity="0.157"/>
      <stop offset="0.378" stop-color="#ec8b78" stop-opacity="0.376"/>
      <stop offset="0.635" stop-color="#f0a991" stop-opacity="0.635"/>
      <stop offset="0.919" stop-color="#f6d2b3" stop-opacity="0.918"/>
      <stop offset="1" stop-color="#f8dfbe"/>
    </linearGradient>
    <linearGradient id="linear-gradient-9" x1="0.02" y1="0.428" x2="1.148" y2="0.604" xlink:href="#linear-gradient-7"/>
    <linearGradient id="linear-gradient-10" x1="0.487" y1="0.493" x2="0.356" y2="1.05" gradientUnits="objectBoundingBox">
      <stop offset="0" stop-color="#fff" stop-opacity="0"/>
      <stop offset="0.214" stop-color="#fef0ec" stop-opacity="0.216"/>
      <stop offset="0.645" stop-color="#fcc9bb" stop-opacity="0.643"/>
      <stop offset="1" stop-color="#faa68e"/>
    </linearGradient>
    <linearGradient id="linear-gradient-11" x1="0.413" y1="0.795" x2="0.744" y2="-0.001" xlink:href="#linear-gradient-4"/>
    <linearGradient id="linear-gradient-12" x1="0.582" y1="0.419" x2="0.393" y2="0.898" gradientUnits="objectBoundingBox">
      <stop offset="0" stop-color="#faa68e"/>
      <stop offset="0.353" stop-color="#faa38f"/>
      <stop offset="0.651" stop-color="#fc9893"/>
      <stop offset="0.929" stop-color="#fe879a"/>
      <stop offset="1" stop-color="#ff819c"/>
    </linearGradient>
    <linearGradient id="linear-gradient-13" x1="0.534" y1="0.542" x2="0.374" y2="1.051" xlink:href="#linear-gradient-10"/>
    <linearGradient id="linear-gradient-14" x1="0.551" y1="0.518" x2="0.387" y2="1.157" gradientUnits="objectBoundingBox">
      <stop offset="0" stop-color="#f82814" stop-opacity="0"/>
      <stop offset="1" stop-color="#c0272d"/>
    </linearGradient>
    <linearGradient id="linear-gradient-15" x1="0.553" y1="0.547" x2="0.442" y2="0.892" xlink:href="#linear-gradient-10"/>
    <linearGradient id="linear-gradient-16" x1="0.859" y1="0.505" x2="1.339" y2="1.403" gradientUnits="objectBoundingBox">
      <stop offset="0" stop-color="#f82814" stop-opacity="0"/>
      <stop offset="0.268" stop-color="#ee2818" stop-opacity="0.267"/>
      <stop offset="0.719" stop-color="#d42724" stop-opacity="0.718"/>
      <stop offset="1" stop-color="#c0272d"/>
    </linearGradient>
    <linearGradient id="linear-gradient-17" x1="0.451" y1="0.653" x2="0.544" y2="0.264" xlink:href="#linear-gradient-14"/>
    <linearGradient id="linear-gradient-18" x1="0.533" y1="0.408" x2="0.365" y2="0.826" xlink:href="#linear-gradient-12"/>
    <linearGradient id="linear-gradient-19" x1="0.485" y1="0.518" x2="0.344" y2="0.962" xlink:href="#linear-gradient-10"/>
    <linearGradient id="linear-gradient-20" x1="0.492" y1="0.499" x2="0.346" y2="1.057" xlink:href="#linear-gradient-14"/>
    <linearGradient id="linear-gradient-21" x1="0.487" y1="0.527" x2="0.388" y2="0.828" xlink:href="#linear-gradient-10"/>
    <linearGradient id="linear-gradient-22" x1="0.606" y1="0.312" x2="1.032" y2="1.09" xlink:href="#linear-gradient-16"/>
  </defs>
  <g id="Group_78" data-name="Group 78" transform="translate(0 17.685)">
    <path id="Path_1873" data-name="Path 1873" d="M105.472,375.748a59.549,59.549,0,0,1-17.177-2.32c.674,2.4,1.94,4.221,3.5,4.8a40.571,40.571,0,0,0,13.676,2.122,40.569,40.569,0,0,0,13.676-2.122c1.561-.582,2.827-2.4,3.5-4.8A59.549,59.549,0,0,1,105.472,375.748Z" transform="translate(-79.197 -359.784)" fill="url(#linear-gradient)"/>
    <path id="Path_1874" data-name="Path 1874" d="M52.548,250.154c0,12.2-52.548,12.2-52.548,0S52.548,237.954,52.548,250.154Z" transform="translate(0 -241.004)" fill="url(#linear-gradient-2)"/>
    <path id="Path_1875" data-name="Path 1875" d="M80.336,264.335c0,8.7-45.336,8.7-45.336,0S80.336,255.637,80.336,264.335Z" transform="translate(-31.394 -256.079)" fill="url(#linear-gradient-3)"/>
  </g>
  <path id="Path_1876" data-name="Path 1876" d="M229.086,270.39l-5.767-5.767c-1.492-1.615-4.535-2.229-8.045-2.229-2.427,0-9.625-.206-12.072-.206-3.637,0-6.172,1.107-6.172,2.98a2.072,2.072,0,0,0,.607,1.534,3.851,3.851,0,0,1,.888,3.495,4.491,4.491,0,0,0-.072.8,4.873,4.873,0,0,0,1.64,3.566l3.735,3.736c11.937-.116,23.645-2.753,25.258-7.91Z" transform="translate(-176.728 -242.32)" fill="url(#linear-gradient-4)"/>
  <g id="Group_79" data-name="Group 79" transform="translate(19.992 18.503)">
    <path id="Path_1877" data-name="Path 1877" d="M221.608,263.21c0-2.538-4.041-5.022-9.026-5.022H200.614c-3.637,0-6.585,1.519-6.585,3.392a2.194,2.194,0,0,0,.71,1.534,3.965,3.965,0,0,1,1.094,3.495,4.491,4.491,0,0,0-.072.8c0,2.984,2.948,5.4,6.585,5.4a7.648,7.648,0,0,0,3.457-.8,5.291,5.291,0,0,1,3.361-.454,9.182,9.182,0,0,0,1.686.155c3.312,0,6.127-1.747,7.149-4.178a2.235,2.235,0,0,1,1.037-1.111C220.627,265.593,221.608,264.46,221.608,263.21Z" transform="translate(-194.029 -257.235)" fill="url(#radial-gradient)"/>
    <path id="Path_1878" data-name="Path 1878" d="M274.248,274.787l-6.213-6.213c-.537-.563-6.875-.368-9.578-.368-2.117,1.094-3.944,1.962-3.944,4.159a1.361,1.361,0,0,0,.54,1.029l7.034,7.034a5.533,5.533,0,0,1,1.329.085,9.176,9.176,0,0,0,1.686.155c3.312,0,6.127-1.747,7.149-4.178a2.236,2.236,0,0,1,1.037-1.111A7.45,7.45,0,0,0,274.248,274.787Z" transform="translate(-248.281 -266.192)" fill="url(#linear-gradient-5)"/>
    <path id="Path_1879" data-name="Path 1879" d="M269.628,255.113c0,3.409-15.115,3.409-15.115,0s3.383-6.173,7.557-6.173S269.628,251.7,269.628,255.113Z" transform="translate(-248.281 -248.94)" fill="url(#linear-gradient-6)"/>
  </g>
  <g id="Group_80" data-name="Group 80" transform="translate(13.807 0)">
    <path id="Path_1880" data-name="Path 1880" d="M279.022,152.347a.363.363,0,0,1,.509-.461,4.751,4.751,0,0,1,2.552,4.024c0,3.241-3.72,3.546-3.72,5.947a9.7,9.7,0,0,0,.307,2.619.363.363,0,0,1-.494.445,4.287,4.287,0,0,1-2.352-4.136c0-3.783,3.689-3.727,3.689-5.8A7.563,7.563,0,0,0,279.022,152.347Z" transform="translate(-261.211 -143.337)" fill="url(#linear-gradient-7)"/>
    <path id="Path_1881" data-name="Path 1881" d="M218.264,69.575c-.081-.145.135-.277.28-.171.983.713,2.644,2.22,2.644,4.26,0,2.9-3.145,3.715-3.564,5.973a7.114,7.114,0,0,0,.794,4.295c.062.12-.08.241-.228.2a4.727,4.727,0,0,1-3.563-5.238c.422-3.522,3.576-3.361,4.136-5.64A5.014,5.014,0,0,0,218.264,69.575Z" transform="translate(-206.28 -69.365)" fill="url(#linear-gradient-8)"/>
    <path id="Path_1882" data-name="Path 1882" d="M135.854,160.6c-.11-.271.121-.525.346-.381a4.339,4.339,0,0,1,2.113,3.32c.193,2.674-2.519,2.926-2.376,4.907a9.233,9.233,0,0,0,.381,2.161c.083.256-.123.482-.336.367a3.922,3.922,0,0,1-1.973-3.413c-.225-3.122,2.485-3.075,2.362-4.782A7.226,7.226,0,0,0,135.854,160.6Z" transform="translate(-133.997 -150.818)" fill="url(#linear-gradient-9)"/>
  </g>
  <path id="Path_1883" data-name="Path 1883" d="M70.847,266.5a5.333,5.333,0,0,1-.855-.673l-.11-.106a5.344,5.344,0,0,0-4.956-1.358l-.148.035a5.345,5.345,0,0,1-5.269-1.687l-.116-.133a5.407,5.407,0,0,0-4.752-1.812h0a5.4,5.4,0,0,1-5.259-2.506l-.041-.065a6.623,6.623,0,0,0-1.993-2.053l-.048-.032a3.069,3.069,0,0,0-1.746-.533,9.9,9.9,0,0,0-4.538.847c.3,1.056,1.472,2.212,3.27,3.4a6.857,6.857,0,0,1,2.062,2.125l.068.111a5.676,5.676,0,0,0,5.531,2.682h0a5.681,5.681,0,0,1,5,1.942l.107.124a5.568,5.568,0,0,0,5.529,1.792l.155-.037a5.562,5.562,0,0,1,5.2,1.442l.115.113.008.008a1.2,1.2,0,0,0,.525.3l2.4-2.006A1.19,1.19,0,0,0,70.847,266.5Z" transform="translate(-36.789 -236.393)" fill="url(#linear-gradient-10)"/>
  <path id="Path_1884" data-name="Path 1884" d="M20.914,308.693C9.787,307.973,0,304.981,0,299.716a4.771,4.771,0,0,1,1.633-3.456A13.513,13.513,0,0,0,3,297.688,6.09,6.09,0,0,1,4.5,299.837l.044.107a5.082,5.082,0,0,0,4.48,3.14h0a5.1,5.1,0,0,1,4.121,2.419l.076.123a5,5,0,0,0,4.608,2.367l.141-.01A5,5,0,0,1,20.914,308.693Z" transform="translate(0 -272.882)" fill="url(#linear-gradient-11)"/>
  <g id="Group_83" data-name="Group 83" transform="translate(0.596 17.118)">
    <g id="Group_81" data-name="Group 81" transform="translate(5.273 0)">
      <path id="Path_1885" data-name="Path 1885" d="M76.295,250.971l.076.1.005.007a1,1,0,0,0,1.281.248l3.3-1.9a.954.954,0,0,0,.139-1.558,4.42,4.42,0,0,1-.611-.656l-.076-.1a4.507,4.507,0,0,0-3.88-1.762l-.126.008a4.5,4.5,0,0,1-4.092-2.068l-.077-.122a4.544,4.544,0,0,0-3.652-2.1h0a4.518,4.518,0,0,1-3.975-2.724l-.025-.058a5.435,5.435,0,0,0-1.36-1.916l-.035-.032a2.59,2.59,0,0,0-1.36-.665c-2.524-.382-4.28-.186-4.752.824-.436.932.373,2.234,2.022,3.722a5.331,5.331,0,0,1,1.344,1.87l.039.093a4.546,4.546,0,0,0,3.982,2.74h0a4.579,4.579,0,0,1,3.662,2.113l.068.107a4.5,4.5,0,0,0,4.092,2.068l.126-.008A4.507,4.507,0,0,1,76.295,250.971Z" transform="translate(-56.962 -235.498)" fill="url(#linear-gradient-12)"/>
      <path id="Path_1886" data-name="Path 1886" d="M90.141,247.873a4.422,4.422,0,0,1-.611-.656l-.076-.1a4.507,4.507,0,0,0-3.88-1.762l-.126.008a4.5,4.5,0,0,1-4.092-2.068l-.077-.122a4.545,4.545,0,0,0-3.652-2.1h0a4.517,4.517,0,0,1-3.975-2.724l-.025-.058a5.435,5.435,0,0,0-1.36-1.916l-.035-.032a2.589,2.589,0,0,0-1.36-.665,8.385,8.385,0,0,0-3.831.061c.108.887.912,1.973,2.226,3.172a5.628,5.628,0,0,1,1.407,1.983l.041.1a4.75,4.75,0,0,0,4.174,2.9h0a4.774,4.774,0,0,1,3.84,2.236l.071.114a4.687,4.687,0,0,0,4.291,2.188l.132-.009a4.69,4.69,0,0,1,4.069,1.863l.079.106.006.008a1,1,0,0,0,.39.311L90,249.431A.954.954,0,0,0,90.141,247.873Z" transform="translate(-66.003 -235.498)" fill="url(#linear-gradient-13)"/>
      <path id="Path_1887" data-name="Path 1887" d="M105.611,247.878a4.423,4.423,0,0,1-.611-.656l-.076-.1a4.507,4.507,0,0,0-3.88-1.762l-.126.008a4.5,4.5,0,0,1-4.092-2.068l-.077-.122a4.544,4.544,0,0,0-3.652-2.1h0a4.518,4.518,0,0,1-3.975-2.724L89.1,238.3a5.436,5.436,0,0,0-1.36-1.916l-.035-.032a2.589,2.589,0,0,0-1.36-.665,14.562,14.562,0,0,0-2.054-.181,7.208,7.208,0,0,0,2.151,2.824,5.628,5.628,0,0,1,1.407,1.983l.041.1a4.75,4.75,0,0,0,4.174,2.9h0a4.774,4.774,0,0,1,3.84,2.236l.071.114a4.687,4.687,0,0,0,4.291,2.188l.132-.009a4.69,4.69,0,0,1,4.069,1.863l.079.106.006.008a1.006,1.006,0,0,0,.085.1l.835-.479a.954.954,0,0,0,.139-1.558Z" transform="translate(-81.472 -235.503)" fill="url(#linear-gradient-14)"/>
      <path id="Path_1888" data-name="Path 1888" d="M117.035,248.606a4.424,4.424,0,0,1-.611-.656l-.076-.1a4.507,4.507,0,0,0-3.88-1.762l-.126.008a4.5,4.5,0,0,1-4.092-2.068l-.077-.122a4.545,4.545,0,0,0-3.652-2.1h0a4.517,4.517,0,0,1-3.975-2.724l-.025-.058a5.436,5.436,0,0,0-1.36-1.916l-.035-.032a2.59,2.59,0,0,0-1.36-.665c-.255-.039-.5-.071-.741-.1a9.913,9.913,0,0,0,1.781,2.031,5.629,5.629,0,0,1,1.407,1.983l.041.1a4.75,4.75,0,0,0,4.174,2.9h0a4.774,4.774,0,0,1,3.84,2.236l.071.114a4.687,4.687,0,0,0,4.291,2.188l.132-.009a4.69,4.69,0,0,1,4.069,1.863l.079.106.006.008a.986.986,0,0,0,.176.18A.957.957,0,0,0,117.035,248.606Z" transform="translate(-92.897 -236.232)" fill="url(#linear-gradient-15)"/>
      <path id="Path_1889" data-name="Path 1889" d="M217.869,341.131a4.418,4.418,0,0,1-.611-.656l-.076-.1a4.437,4.437,0,0,0-.927-.906l-6.814,2.989a4.5,4.5,0,0,1,3.622,1.771l.076.1.005.007a1,1,0,0,0,1.281.248l3.3-1.9A.954.954,0,0,0,217.869,341.131Z" transform="translate(-193.731 -328.756)" fill="url(#linear-gradient-16)"/>
    </g>
    <path id="Path_1890" data-name="Path 1890" d="M79.7,272.6l.461-.265-.017-.023a5,5,0,0,0-4.369-2.014l-.142.01a5,5,0,0,1-3.576-1.169l-1.335-1.658a5.061,5.061,0,0,0-3.894-2.082h0a5.045,5.045,0,0,1-2.046-.522l-.037-.044-3.192-3.987A6.04,6.04,0,0,0,60.8,260l-.04-.037a2.875,2.875,0,0,0-1.521-.758,8.117,8.117,0,0,0,1.9,2.284,5.329,5.329,0,0,1,1.344,1.87l.039.093a4.546,4.546,0,0,0,3.982,2.74h0a4.579,4.579,0,0,1,3.662,2.113l.068.107a4.5,4.5,0,0,0,4.092,2.068l.126-.008a4.507,4.507,0,0,1,3.88,1.762l.076.1.005.007A1,1,0,0,0,79.7,272.6Z" transform="translate(-53.728 -256.767)" fill="url(#linear-gradient-17)"/>
    <g id="Group_82" data-name="Group 82" transform="translate(0 2.241)">
      <path id="Path_1891" data-name="Path 1891" d="M27.535,275l.085.115.006.008a1.1,1.1,0,0,0,1.444.281l3.735-2.2a1.114,1.114,0,0,0,.164-1.8,5,5,0,0,1-.687-.753l-.085-.115a5,5,0,0,0-4.369-2.014l-.142.01a5,5,0,0,1-4.607-2.366l-.087-.14a5.062,5.062,0,0,0-4.111-2.4h0a5.053,5.053,0,0,1-4.473-3.121l-.028-.067a6.2,6.2,0,0,0-1.526-2.2l-.04-.037a2.874,2.874,0,0,0-1.531-.76c-2.845-.43-4.827-.2-5.364.968-.5,1.075.412,2.572,2.266,4.28a6.079,6.079,0,0,1,1.509,2.149l.044.107a5.085,5.085,0,0,0,4.481,3.14h0a5.1,5.1,0,0,1,4.122,2.419l.076.123A5,5,0,0,0,23.023,273l.142-.01A5,5,0,0,1,27.535,275Z" transform="translate(-5.783 -257.245)" fill="url(#linear-gradient-18)"/>
      <path id="Path_1892" data-name="Path 1892" d="M43.21,271.413a4.99,4.99,0,0,1-.687-.753l-.085-.115a5,5,0,0,0-4.369-2.014l-.142.01a5,5,0,0,1-4.607-2.366l-.087-.14a5.063,5.063,0,0,0-4.111-2.4h0a5.053,5.053,0,0,1-4.473-3.121l-.028-.067a6.2,6.2,0,0,0-1.526-2.2l-.04-.037a2.875,2.875,0,0,0-1.531-.76,9.273,9.273,0,0,0-4.321.087c.118,1.022,1.02,2.269,2.5,3.645a6.419,6.419,0,0,1,1.579,2.279l.046.113a5.314,5.314,0,0,0,4.7,3.325h0a5.319,5.319,0,0,1,4.322,2.561l.08.131a5.213,5.213,0,0,0,4.832,2.5l.149-.011a5.208,5.208,0,0,1,4.582,2.13l.089.122.006.009a1.118,1.118,0,0,0,.439.356l2.524-1.485a1.114,1.114,0,0,0,.164-1.8Z" transform="translate(-16.025 -257.245)" fill="url(#linear-gradient-19)"/>
      <path id="Path_1893" data-name="Path 1893" d="M60.67,271.418a4.994,4.994,0,0,1-.687-.753l-.085-.115a5,5,0,0,0-4.369-2.014l-.142.01a5,5,0,0,1-4.607-2.366l-.087-.141a5.063,5.063,0,0,0-4.111-2.4h0a5.053,5.053,0,0,1-4.473-3.121l-.028-.067a6.2,6.2,0,0,0-1.526-2.2l-.04-.037a2.873,2.873,0,0,0-1.531-.76,16.074,16.074,0,0,0-2.316-.2,8.208,8.208,0,0,0,2.415,3.245,6.42,6.42,0,0,1,1.579,2.279l.046.113a5.314,5.314,0,0,0,4.7,3.325h0a5.319,5.319,0,0,1,4.322,2.561l.08.131a5.214,5.214,0,0,0,4.832,2.5l.149-.011a5.208,5.208,0,0,1,4.582,2.13l.089.122.006.009a1.132,1.132,0,0,0,.1.113l.944-.556A1.114,1.114,0,0,0,60.67,271.418Z" transform="translate(-33.486 -257.249)" fill="url(#linear-gradient-20)"/>
      <path id="Path_1894" data-name="Path 1894" d="M73.554,272.21a4.99,4.99,0,0,1-.687-.753l-.085-.115a5,5,0,0,0-4.369-2.014l-.142.01a5,5,0,0,1-4.607-2.366l-.087-.141a5.063,5.063,0,0,0-4.111-2.4h0a5.053,5.053,0,0,1-4.473-3.121l-.028-.067a6.2,6.2,0,0,0-1.526-2.2L53.4,259a2.874,2.874,0,0,0-1.531-.76c-.288-.044-.566-.079-.836-.109a11.235,11.235,0,0,0,2,2.332,6.419,6.419,0,0,1,1.579,2.279l.046.113a5.314,5.314,0,0,0,4.7,3.325h0a5.319,5.319,0,0,1,4.322,2.561l.08.131a5.213,5.213,0,0,0,4.832,2.5l.149-.011a5.208,5.208,0,0,1,4.582,2.13l.089.122.006.009a1.113,1.113,0,0,0,.2.207,1.118,1.118,0,0,0-.06-1.623Z" transform="translate(-46.369 -258.041)" fill="url(#linear-gradient-21)"/>
      <path id="Path_1895" data-name="Path 1895" d="M186.814,378.147a4.993,4.993,0,0,1-.687-.753l-.085-.115a4.994,4.994,0,0,0-1.042-1.04l-7.7,3.472a5,5,0,0,1,4.079,2.025l.085.115.006.008a1.1,1.1,0,0,0,1.444.281l3.735-2.2A1.114,1.114,0,0,0,186.814,378.147Z" transform="translate(-159.629 -363.978)" fill="url(#linear-gradient-22)"/>
    </g>
  </g>
</svg>
