<svg xmlns="http://www.w3.org/2000/svg" width="35.5" height="34.718" viewBox="0 0 35.5 34.718">
  <g id="breakfast" transform="translate(-7.368 -11.794)">
    <path id="Path_119" data-name="Path 119" d="M88.717,87.555c-2.674-2.894-5.808-2.332-8.326-1.88-.6.108-1.168.209-1.71.266a23.659,23.659,0,0,1-3.013.1,8.7,8.7,0,0,0-5.445,1.279l0-.051a8.988,8.988,0,0,0-.309-3.156.913.913,0,0,0-1.119-.646l-9.17,2.457a.919.919,0,0,0-.646,1.119,7.14,7.14,0,0,1,.249,2.592,9.766,9.766,0,0,0,1.62,6.044,7.247,7.247,0,0,1,.867,1.674c-.238-.168-.507-.34-.815-.518a.914.914,0,0,0-1.248.334l-4.747,8.222a.914.914,0,0,0,.334,1.248A7.14,7.14,0,0,1,57.25,108.3a9.77,9.77,0,0,0,5.419,3.128,7.893,7.893,0,0,1,4.447,2.568,9.768,9.768,0,0,0,5.419,3.128,7.14,7.14,0,0,1,2.439.911.914.914,0,0,0,1.248-.334l2.312-4.005h0A11.255,11.255,0,0,0,89.576,101.28a23.538,23.538,0,0,1,.344-5.186c.432-3.09.88-6.284-1.2-8.539ZM68.4,87.179a9.768,9.768,0,0,0,1.619,6.044,7.892,7.892,0,0,1,1.329,4.96,10.273,10.273,0,0,0,1.532,6,8.727,8.727,0,0,0-2.114-1.648,8.946,8.946,0,0,0-2.04-.89,7.1,7.1,0,0,1-.139-2.141,9.762,9.762,0,0,0-1.618-6.039,7.863,7.863,0,0,1-1.328-4.955,9.048,9.048,0,0,0-.109-2.272l2.813-.754A7.452,7.452,0,0,1,68.4,87.179Zm-7.345,2.549a9.065,9.065,0,0,0-.108-2.264l2.814-.754a7.434,7.434,0,0,1,.056,1.706,9.76,9.76,0,0,0,1.618,6.038,7.864,7.864,0,0,1,1.328,4.955,9.645,9.645,0,0,0,.032,1.755,8.545,8.545,0,0,1-2.775-1.62,9.09,9.09,0,0,0-.325-1.968,8.989,8.989,0,0,0-1.311-2.888A7.894,7.894,0,0,1,61.056,89.728Zm-.3,9.186A7.452,7.452,0,0,1,62,100.075a9.768,9.768,0,0,0,5.419,3.128,7.872,7.872,0,0,1,4.447,2.568,9.771,9.771,0,0,0,5.419,3.128,7.457,7.457,0,0,1,1.626.492l-1.456,2.522a9.049,9.049,0,0,0-2.167-.694,7.883,7.883,0,0,1-4.442-2.565,9.684,9.684,0,0,0-5.414-3.126,7.883,7.883,0,0,1-4.442-2.565,9.05,9.05,0,0,0-1.684-1.529Zm14.32,17.112a9.064,9.064,0,0,0-2.159-.69,7.893,7.893,0,0,1-4.447-2.568,9.767,9.767,0,0,0-5.419-3.128,7.893,7.893,0,0,1-4.447-2.568,9.067,9.067,0,0,0-1.677-1.525l1.456-2.523a7.432,7.432,0,0,1,1.246,1.167,8.98,8.98,0,0,0,2.448,2.012c2.45,1.434,3.1.719,5.4,2.024a7.135,7.135,0,0,1,2.006,1.655,9.759,9.759,0,0,0,5.414,3.126,7.43,7.43,0,0,1,1.633.5ZM88.11,95.84a24.884,24.884,0,0,0-.355,5.6,9.357,9.357,0,0,1-8.1,10.318l1.316-2.28a.914.914,0,0,0-.334-1.248,8.989,8.989,0,0,0-2.969-1.115,7.6,7.6,0,0,1-1.548-.458,12.248,12.248,0,0,0-1.4-2.962,8.741,8.741,0,0,1-1.544-5.418,9.769,9.769,0,0,0-1.619-6.044A7.732,7.732,0,0,1,70.362,89.4a7.256,7.256,0,0,1,5.28-1.53,23.118,23.118,0,0,0,5.071-.4c2.4-.43,4.667-.837,6.662,1.322,1.5,1.619,1.143,4.133.736,7.045Z" transform="translate(-47.417 -71.643)" fill="#bfc4d6"/>
    <path id="Path_120" data-name="Path 120" d="M283.521,157.229c-4.873.158-6.484,5.441-3.836,9.094a4.584,4.584,0,0,0,7.673,0C290.005,162.67,288.394,157.386,283.521,157.229Zm0,9.351c-2.145,0-3.287-2.46-3.287-4.237a3.287,3.287,0,0,1,6.574,0C286.809,164.12,285.666,166.58,283.521,166.58Z" transform="translate(-250.618 -138.693)" fill="#bfc4d6"/>
  </g>
</svg>
