<svg xmlns="http://www.w3.org/2000/svg" width="26.393" height="40.574" viewBox="0 0 26.393 40.574">
  <g id="cocktail" transform="translate(-89.478 0)">
    <g id="Group_47" data-name="Group 47" transform="translate(89.478 0)">
      <path id="Path_108" data-name="Path 108" d="M115.8.468a.793.793,0,0,0-1.047-.4L108,3.092a5.974,5.974,0,0,0-3.414,4.288l-.176.892H98.985l1.554-1.1a.8.8,0,0,0,.188-1.1,6.2,6.2,0,0,0-5.463-2.6,6.024,6.024,0,0,0-5.243,3.642,6.2,6.2,0,0,0,.594,6.122.8.8,0,0,0,1.1.188l1.957-1.386A81.514,81.514,0,0,0,91.63,28.348a24.509,24.509,0,0,0,2,10.346,3.279,3.279,0,0,0,2.963,1.88h2.384a.792.792,0,1,0,0-1.585H96.592a1.689,1.689,0,0,1-1.527-.966,16.2,16.2,0,0,1-.741-1.916,5.393,5.393,0,0,0,3.2,1.092h9.439a5.392,5.392,0,0,0,3.2-1.1,16.211,16.211,0,0,1-.743,1.922,1.689,1.689,0,0,1-1.527.966h-1.948a.792.792,0,1,0,0,1.585H107.9a3.28,3.28,0,0,0,2.963-1.88,25.655,25.655,0,0,0,1.979-11.555,88.626,88.626,0,0,0-1.565-12.76c0-.006,0-.012,0-.017-.6-3.187-1.146-5.459-1.153-5.484a.793.793,0,0,0-.77-.606h-3.319l.115-.584a4.387,4.387,0,0,1,2.507-3.149L115.4,1.516a.793.793,0,0,0,.4-1.047ZM95.77,9.856H104.1l-.766,3.876H94.955C95.3,11.98,95.6,10.6,95.77,9.856Zm.474-1.585h-.291l.078-3.218a4.614,4.614,0,0,1,2.89,1.321ZM93,5.885A4.591,4.591,0,0,1,94.442,5.2l-.066,2.716-2.458-.95A4.589,4.589,0,0,1,93,5.885Zm-1.5,5.744A4.615,4.615,0,0,1,91.234,8.4l2.98,1.152-.042.185Zm15.457,23.985H97.524c-2.2,0-3.633-2.128-3.944-2.636a34.422,34.422,0,0,1-.2-8.391c.251-3.11.716-6.2,1.275-9.269h8.365L99.768,31.782a.792.792,0,1,0,1.555.307l3.313-16.772h5.2a93.624,93.624,0,0,1,1.279,9.32,34.32,34.32,0,0,1-.2,8.34c-.317.515-1.755,2.636-3.945,2.636Zm1.755-25.757c.17.743.474,2.124.815,3.876h-4.584l.766-3.876Z" transform="translate(-89.478 0)" fill="#fff"/>
      <path id="Path_109" data-name="Path 109" d="M275.254,324.3h-2.23a1.7,1.7,0,0,0-1.7,1.7v2.23a1.7,1.7,0,0,0,1.7,1.7h2.23a1.7,1.7,0,0,0,1.7-1.7v-2.23A1.7,1.7,0,0,0,275.254,324.3Zm.113,3.928a.113.113,0,0,1-.113.113h-2.23a.113.113,0,0,1-.113-.113v-2.23a.113.113,0,0,1,.113-.113h2.23a.113.113,0,0,1,.113.113Z" transform="translate(-256.915 -298.596)" fill="#fff"/>
      <path id="Path_110" data-name="Path 110" d="M166.757,227.939l-1.182-1.182a1.522,1.522,0,0,0-2.149,0l-1.182,1.182a1.52,1.52,0,0,0,0,2.149l1.182,1.182a1.522,1.522,0,0,0,2.149,0l1.182-1.182A1.522,1.522,0,0,0,166.757,227.939ZM164.5,230.1l-1.089-1.089,1.089-1.09,1.089,1.09Z" transform="translate(-156.068 -208.378)" fill="#fff"/>
      <path id="Path_111" data-name="Path 111" d="M245.111,492.5a.792.792,0,1,0-.306.972A.8.8,0,0,0,245.111,492.5Z" transform="translate(-231.374 -453.02)" fill="#fff"/>
    </g>
  </g>
</svg>
