<svg xmlns="http://www.w3.org/2000/svg" width="38.443" height="33.637" viewBox="0 0 38.443 33.637">
  <g id="coffee-cup" transform="translate(0 -32.001)">
    <g id="Group_49" data-name="Group 49" transform="translate(4.804 44.814)">
      <g id="Group_48" data-name="Group 48" transform="translate(0 0)">
        <path id="Path_112" data-name="Path 112" d="M88.816,202.654H66.391a2.406,2.406,0,0,0-2.4,2.4v1.6a15.18,15.18,0,0,0,8.238,13.527.8.8,0,0,0,.735-1.424,13.581,13.581,0,0,1-7.372-12.1v-1.6a.8.8,0,0,1,.8-.8H88.816a.8.8,0,0,1,.8.8v1.6a13.576,13.576,0,0,1-7.373,12.1.8.8,0,0,0,.368,1.514.79.79,0,0,0,.367-.09,15.172,15.172,0,0,0,8.24-13.526v-1.6A2.406,2.406,0,0,0,88.816,202.654Z" transform="translate(-63.988 -202.654)" fill="#bfc4d6"/>
      </g>
    </g>
    <g id="Group_51" data-name="Group 51" transform="translate(0 60.831)">
      <g id="Group_50" data-name="Group 50" transform="translate(0 0)">
        <path id="Path_113" data-name="Path 113" d="M36.781,416.461a.8.8,0,0,0-.74-.495H.8a.8.8,0,0,0-.567,1.368l1.8,1.8a5.573,5.573,0,0,0,3.964,1.642H30.845a5.582,5.582,0,0,0,3.968-1.642l1.8-1.8A.8.8,0,0,0,36.781,416.461ZM33.679,418a3.982,3.982,0,0,1-2.832,1.173H5.994A3.982,3.982,0,0,1,3.163,418l-.429-.429H34.108Z" transform="translate(0 -415.966)" fill="#bfc4d6"/>
      </g>
    </g>
    <g id="Group_53" data-name="Group 53" transform="translate(26.662 48.014)">
      <g id="Group_52" data-name="Group 52">
        <path id="Path_114" data-name="Path 114" d="M365.325,245.854c-2.158-1.387-5.6.119-5.991.293a.8.8,0,1,0,.665,1.459c.772-.351,3.248-1.182,4.459-.4a2.276,2.276,0,0,1,.814,2.076c0,3.207-6.468,5.145-8.965,5.622l-.567.112a.8.8,0,0,0,.154,1.586.742.742,0,0,0,.155-.016l.562-.111c.42-.08,10.263-2.01,10.263-7.194A3.778,3.778,0,0,0,365.325,245.854Z" transform="translate(-355.093 -245.272)" fill="#bfc4d6"/>
      </g>
    </g>
    <g id="Group_55" data-name="Group 55" transform="translate(22.425 32.001)">
      <g id="Group_54" data-name="Group 54" transform="translate(0 0)">
        <path id="Path_115" data-name="Path 115" d="M300.9,38.106a4.8,4.8,0,0,0,0-5.8.8.8,0,0,0-1.251,1,3.231,3.231,0,0,1,0,3.8,4.794,4.794,0,0,0,0,5.8.8.8,0,1,0,1.251-1A3.226,3.226,0,0,1,300.9,38.106Z" transform="translate(-298.666 -32.001)" fill="#bfc4d6"/>
      </g>
    </g>
    <g id="Group_57" data-name="Group 57" transform="translate(17.614 32.001)">
      <g id="Group_56" data-name="Group 56" transform="translate(0 0)">
        <path id="Path_116" data-name="Path 116" d="M236.826,38.114a4.794,4.794,0,0,0,0-5.8.8.8,0,1,0-1.251,1,3.226,3.226,0,0,1,0,3.8,4.8,4.8,0,0,0,0,5.8.8.8,0,0,0,1.251-1A3.231,3.231,0,0,1,236.826,38.114Z" transform="translate(-234.597 -32.009)" fill="#bfc4d6"/>
      </g>
    </g>
    <g id="Group_59" data-name="Group 59" transform="translate(12.814 32.002)">
      <g id="Group_58" data-name="Group 58" transform="translate(0 0)">
        <path id="Path_117" data-name="Path 117" d="M172.9,38.127a4.8,4.8,0,0,0,0-5.8.8.8,0,0,0-1.251,1,3.231,3.231,0,0,1,0,3.8,4.794,4.794,0,0,0,0,5.8.8.8,0,1,0,1.251-1A3.226,3.226,0,0,1,172.9,38.127Z" transform="translate(-170.666 -32.022)" fill="#bfc4d6"/>
      </g>
    </g>
  </g>
</svg>
