<svg xmlns="http://www.w3.org/2000/svg" width="34.578" height="27.008" viewBox="0 0 34.578 27.008">
  <g id="meat" transform="translate(0 -56.043)">
    <g id="Group_61" data-name="Group 61" transform="translate(0 56.043)">
      <g id="Group_60" data-name="Group 60" transform="translate(0 0)">
        <path id="Path_121" data-name="Path 121" d="M31.638,60.746a18.493,18.493,0,0,0-6.615-3.058,56.792,56.792,0,0,0-13.88-1.646A11.156,11.156,0,0,0,0,67.186v4.721A11.156,11.156,0,0,0,11.143,83.051a17.7,17.7,0,0,0,7.214-1.827,19.648,19.648,0,0,1,8.127-1.977,8.1,8.1,0,0,0,8.094-8.094V66.432A7.077,7.077,0,0,0,31.638,60.746Zm-.569,11.545a.675.675,0,0,0,.955.029,8.112,8.112,0,0,0,1.2-1.429v.262A6.751,6.751,0,0,1,26.484,77.9a20.765,20.765,0,0,0-8.647,2.081A16.635,16.635,0,0,1,11.143,81.7a9.8,9.8,0,0,1-9.772-9.163,11.152,11.152,0,0,0,9.772,5.792A17.7,17.7,0,0,0,18.357,76.5a19.648,19.648,0,0,1,8.127-1.977c.252,0,.506-.012.756-.035a.675.675,0,1,0-.126-1.345c-.208.019-.42.029-.63.029a20.765,20.765,0,0,0-8.647,2.081,16.635,16.635,0,0,1-6.694,1.723,9.793,9.793,0,0,1,0-19.585,55.4,55.4,0,0,1,13.522,1.6c5.681,1.56,8.562,4.064,8.562,7.441A6.768,6.768,0,0,1,31.1,71.337.675.675,0,0,0,31.069,72.292Z" transform="translate(0 -56.043)" fill="#bfc4d6"/>
      </g>
    </g>
    <g id="Group_63" data-name="Group 63" transform="translate(29.226 72.335)">
      <g id="Group_62" data-name="Group 62" transform="translate(0 0)">
        <path id="Path_122" data-name="Path 122" d="M434.038,297.669a.675.675,0,0,0-.9-.323l-.016.008a.675.675,0,1,0,.915.316Z" transform="translate(-432.75 -297.281)" fill="#bfc4d6"/>
      </g>
    </g>
    <g id="Group_65" data-name="Group 65" transform="translate(15.255 58.93)">
      <g id="Group_64" data-name="Group 64" transform="translate(0 0)">
        <path id="Path_123" data-name="Path 123" d="M226.641,98.794l-.035,0a.675.675,0,0,0-.107,1.347l.035,0,.055,0a.675.675,0,0,0,.053-1.349Z" transform="translate(-225.877 -98.789)" fill="#bfc4d6"/>
      </g>
    </g>
    <g id="Group_67" data-name="Group 67" transform="translate(2.701 58.744)">
      <g id="Group_66" data-name="Group 66" transform="translate(0 0)">
        <path id="Path_124" data-name="Path 124" d="M68.752,101.91c-.67-1.324-2.16-2.468-4.43-3.4a28.9,28.9,0,0,0-5.207-1.5c-.816-.16-1.671-.3-2.542-.425a.675.675,0,1,0-.187,1.338c.846.118,1.677.257,2.469.412,4.639.91,7.807,2.435,8.692,4.183a2.618,2.618,0,0,1,.276,1.21,4.047,4.047,0,0,1-4.042,4.042,20.646,20.646,0,0,0-6.69,1.126c-.968.326-1.909.717-2.818,1.094-.6.25-1.223.508-1.841.742a10.863,10.863,0,0,1-3.992.842,7.091,7.091,0,1,1,0-14.183c.763,0,1.537.014,2.3.043l.39.016a.675.675,0,0,0,.06-1.349l-.4-.016c-.781-.029-1.572-.044-2.352-.044a8.442,8.442,0,1,0,0,16.884,12.118,12.118,0,0,0,4.471-.93c.637-.241,1.269-.5,1.88-.757.888-.369,1.807-.75,2.731-1.061a19.317,19.317,0,0,1,6.259-1.055,5.4,5.4,0,0,0,5.393-5.393A3.937,3.937,0,0,0,68.752,101.91Z" transform="translate(-39.998 -96.042)" fill="#bfc4d6"/>
      </g>
    </g>
    <g id="Group_69" data-name="Group 69" transform="translate(8.366 61.431)">
      <g id="Group_68" data-name="Group 68">
        <path id="Path_125" data-name="Path 125" d="M127.3,135.82a3.12,3.12,0,1,0,3.424,3.105A3.28,3.28,0,0,0,127.3,135.82Zm0,4.859a1.779,1.779,0,1,1,2.073-1.754A1.936,1.936,0,0,1,127.3,140.679Z" transform="translate(-123.877 -135.82)" fill="#bfc4d6"/>
      </g>
    </g>
  </g>
</svg>
