<svg xmlns="http://www.w3.org/2000/svg" width="30.014" height="30.004" viewBox="0 0 30.014 30.004">
  <g id="outline" transform="translate(-1.981 -2)">
    <path id="Path_126" data-name="Path 126" d="M29.67,19.429a4.605,4.605,0,0,0-1.329-.25c-.09-.007-.2-.015-.289-.026.045-.059.1-.124.14-.179a3.547,3.547,0,0,0,.79-1.464c.29-1.267.355-3.651-1.243-4.551a2.913,2.913,0,0,0-2.3-.195,4.1,4.1,0,0,0-2.385,1.9,4.126,4.126,0,0,0-.019,3.117c.15.556.3,1.081.116,1.25-.209.2-.831.033-1.433-.132l-.576-.15A4,4,0,0,0,17.493,16.4h-.041a4.647,4.647,0,0,0-.284-1.11c-1-2.532-3.8-3.812-5.634-3.266a3,3,0,0,0-1.36.883A5.008,5.008,0,0,0,8.62,11.461a5.748,5.748,0,0,0-4.58-.35,3.021,3.021,0,0,0-1.924,1.6c-.467,1.181.4,2.522,1.975,4.956.168.26.344.515.518.771a9.1,9.1,0,0,0-1.207.55,2.626,2.626,0,0,0-1.225,1.225A4.951,4.951,0,0,0,1.991,21.9a14.519,14.519,0,0,0,14.5,14.5h1a14.519,14.519,0,0,0,14.5-14.5.892.892,0,0,0-.054-.226,4.33,4.33,0,0,0-2.271-2.243Zm-8.216.442c.871.236,1.77.48,2.385-.113s.378-1.423.156-2.237a3.249,3.249,0,0,1-.058-2.395,3.1,3.1,0,0,1,1.784-1.4,1.96,1.96,0,0,1,1.527.108c1.007.567,1.005,2.376.758,3.453a2.628,2.628,0,0,1-.595,1.059c-.274.343-.615.768-.366,1.273.241.482.762.521,1.221.555a3.662,3.662,0,0,1,1.05.19A2.885,2.885,0,0,1,30.6,21.4H25.594c.115-.632.242-1.264.388-1.886.273-1.162.6-2.324.987-3.455l-.947-.32c-.393,1.161-.734,2.354-1.014,3.546-.164.7-.3,1.407-.43,2.115H21.362a3.771,3.771,0,0,0,.092-1.527ZM17.993,18.4v-.955a3.005,3.005,0,0,1,2.383,2.134l-1.041.347.316.95.832-.277a2.913,2.913,0,0,1-.163.8H14.665a2.943,2.943,0,0,1-.173-1q0-.15.016-.3l.827.276.316-.95-.874-.292a3.005,3.005,0,0,1,2.216-1.689V18.4Zm-6.173-5.416c1.363-.406,3.639.7,4.418,2.675a3.648,3.648,0,0,1,.225.881,3.98,3.98,0,0,0-2.844,4.842l-.042.02H11.27c.214-.223.424-.45.614-.69a10.243,10.243,0,0,0,2.105-5.256L13,15.342a9.3,9.3,0,0,1-1.9,4.745c-.028.036-.062.067-.091.1a8.5,8.5,0,0,0-.291-6.374,2.173,2.173,0,0,1,1.1-.832Zm-8.773.1a2.1,2.1,0,0,1,1.323-1.022,4.781,4.781,0,0,1,3.751.272c2.392,1.381,2.939,5.361,1.814,7.863-.04.088-.086.169-.131.25-.1-.408-.205-.811-.337-1.2a14.579,14.579,0,0,0-4.139-6.213l-.671.741a13.6,13.6,0,0,1,3.862,5.789A12.874,12.874,0,0,1,8.981,21.4H8.116A39.843,39.843,0,0,1,4.93,17.125c-1.421-2.2-2.15-3.374-1.884-4.046Zm.045,7.535a1.582,1.582,0,0,1,.788-.75A7.994,7.994,0,0,1,5.2,19.289q.779,1.085,1.618,2.109h-3.8a1.364,1.364,0,0,1,.074-.782ZM17.493,35.4h-1A13.518,13.518,0,0,1,3,22.4H30.986a13.518,13.518,0,0,1-13.493,13Z" transform="translate(0 -4.395)" fill="#bfc4d6"/>
    <rect id="Rectangle_35" data-name="Rectangle 35" width="1" height="1" transform="translate(16.993 15.002)" fill="#bfc4d6"/>
    <path id="Path_127" data-name="Path 127" d="M34,9.5v1a.5.5,0,0,0,.5.5h2A4.506,4.506,0,0,0,41,6.5v-1a.5.5,0,0,0-.5-.5h-2A4.506,4.506,0,0,0,34,9.5ZM38.5,6H40v.5A3.5,3.5,0,0,1,36.5,10h-.65L38.325,7.88l-.65-.759L35,9.41A3.5,3.5,0,0,1,38.5,6Z" transform="translate(-16.007 -1.5)" fill="#bfc4d6"/>
    <path id="Path_128" data-name="Path 128" d="M25,6.5A1.5,1.5,0,1,0,26.5,5,1.5,1.5,0,0,0,25,6.5Zm2,0a.5.5,0,1,1-.5-.5A.5.5,0,0,1,27,6.5Z" transform="translate(-11.508 -1.5)" fill="#bfc4d6"/>
    <path id="Path_129" data-name="Path 129" d="M12,3.5A1.5,1.5,0,1,0,13.5,2,1.5,1.5,0,0,0,12,3.5Zm2,0a.5.5,0,1,1-.5-.5A.5.5,0,0,1,14,3.5Z" transform="translate(-5.009)" fill="#bfc4d6"/>
    <path id="Path_130" data-name="Path 130" d="M10,43.481,9.145,44a13.58,13.58,0,0,0,5.711,5.191l.435-.9A12.588,12.588,0,0,1,10,43.481Z" transform="translate(-3.581 -20.738)" fill="#bfc4d6"/>
    <rect id="Rectangle_36" data-name="Rectangle 36" width="1" height="1" transform="translate(12.492 28.004)" fill="#bfc4d6"/>
  </g>
</svg>
