<svg xmlns="http://www.w3.org/2000/svg" width="27.556" height="28.506" viewBox="0 0 27.556 28.506">
  <g id="soup" transform="translate(-8.532 0)">
    <g id="Group_71" data-name="Group 71" transform="translate(8.532 0)">
      <g id="Group_70" data-name="Group 70" transform="translate(0 0)">
        <path id="Path_131" data-name="Path 131" d="M85.021,336.927h0a11.08,11.08,0,0,1-5.356-3.946.475.475,0,1,0-.771.556,12.036,12.036,0,0,0,5.819,4.289.475.475,0,0,0,.308-.9Z" transform="translate(-74.89 -314.253)" fill="#bfc4d6"/>
        <path id="Path_132" data-name="Path 132" d="M53.367,281.975a.475.475,0,0,0-.9.3c.112.333.243.666.387.989a.475.475,0,0,0,.867-.389C53.589,282.583,53.47,282.279,53.367,281.975Z" transform="translate(-49.997 -265.97)" fill="#bfc4d6"/>
        <path id="Path_133" data-name="Path 133" d="M294.2,14.031a2.811,2.811,0,0,0,.836,2,.475.475,0,0,0,.672-.672,1.859,1.859,0,0,1,0-2.654c1.144-1.144.609-2.913-.475-4a.475.475,0,0,0-.672.672c.758.758,1.183,1.946.475,2.654A2.811,2.811,0,0,0,294.2,14.031Z" transform="translate(-278.294 -8.093)" fill="#bfc4d6"/>
        <path id="Path_134" data-name="Path 134" d="M200.332,56.7a2.812,2.812,0,0,0,.836,2,.475.475,0,0,0,.672-.672,1.859,1.859,0,0,1,0-2.654c1.144-1.144.609-2.913-.475-4a.475.475,0,0,0-.672.672c.758.758,1.183,1.946.475,2.654A2.811,2.811,0,0,0,200.332,56.7Z" transform="translate(-189.653 -48.384)" fill="#bfc4d6"/>
        <path id="Path_135" data-name="Path 135" d="M110.932,5.5a2.811,2.811,0,0,0,.836,2,.475.475,0,1,0,.672-.672,1.859,1.859,0,0,1,0-2.654c1.144-1.144.609-2.913-.475-4a.475.475,0,0,0-.672.672c.758.758,1.183,1.946.475,2.654A2.811,2.811,0,0,0,110.932,5.5Z" transform="translate(-105.231 -0.036)" fill="#bfc4d6"/>
        <path id="Path_136" data-name="Path 136" d="M30.928,11.742a23.653,23.653,0,0,1,.85-6.1c.656-1.64,2.642-2.832,3.466-3.268A1.264,1.264,0,0,0,34.156.1a10.589,10.589,0,0,0-4.639,3.681c-1.215,1.822-1.684,5.3-1.866,7.744-1.7-.08-3.494-.122-5.341-.122a93.716,93.716,0,0,0-9.456.42c-3.988.427-4.322.966-4.322,1.481,0,.011,0,.022,0,.033h0l0,.021c0,.017,0,.035,0,.052.008.112.024.33.038.484a13.11,13.11,0,0,0,4.707,8.953v2.81c0,1.871,4.541,2.851,9.027,2.851s9.027-.979,9.027-2.851V23.1a12.4,12.4,0,0,0,4.742-9.319c0-.039,0-.253.007-.376,0-.034,0-.067,0-.1C36.088,12.887,36.086,12.2,30.928,11.742Zm3.856,1.56a20.04,20.04,0,0,1-3.92.614c0-.274.011-.7.027-1.224A19.717,19.717,0,0,1,34.785,13.3Zm-6.213-1.257h0c.151-2.357.57-5.987,1.736-7.736A9.631,9.631,0,0,1,34.525.975a.314.314,0,0,1,.275.563c-1.138.6-3.159,1.892-3.9,3.755-.874,2.185-.972,7.457-.983,8.7q-.683.052-1.425.094C28.492,13.771,28.509,13.018,28.571,12.045Zm-6.261.307c1.827,0,3.6.042,5.281.12-.042.806-.052,1.409-.054,1.66-1.7.077-3.454.12-5.227.12-6.678,0-11.162-.505-12.511-.95C11.148,12.858,15.632,12.353,22.31,12.353Zm8.077,13.3c0,.645-2.851,1.9-8.077,1.9s-8.077-1.255-8.077-1.9V23.576a14.029,14.029,0,0,0,8.077,2.554,14.607,14.607,0,0,0,8.077-2.343Zm.222-3.2a.467.467,0,0,0-.094.072,13.525,13.525,0,0,1-8.2,2.652A12.722,12.722,0,0,1,9.566,14.21a17.684,17.684,0,0,0,3.288.573,93.733,93.733,0,0,0,9.456.42c1.948,0,3.879-.047,5.739-.138.846-.043,1.651-.1,2.391-.158A22.8,22.8,0,0,0,35.1,14.2,11.449,11.449,0,0,1,30.608,22.456Z" transform="translate(-8.532 0)" fill="#bfc4d6"/>
      </g>
    </g>
  </g>
</svg>
